<svg xmlns="http://www.w3.org/2000/svg" version="1.1" xmlns:xlink="http://www.w3.org/1999/xlink" xmlns:svgjs="http://svgjs.dev/svgjs" width="1000" height="1000" viewBox="0 0 1000 1000"><rect width="1000" height="1000" fill="#755bb4"></rect><g transform="matrix(0.7,0,0,0.7,150.0000000000001,106.25)"><svg viewBox="0 0 320 360" data-background-color="#755bb4" preserveAspectRatio="xMidYMid meet" height="1125" width="1000" xmlns="http://www.w3.org/2000/svg" xmlns:xlink="http://www.w3.org/1999/xlink"><g id="tight-bounds" transform="matrix(1,0,0,1,0,0)"><svg viewBox="0 0 320 360" height="360" width="320"><g><svg></svg></g><g><svg viewBox="0 0 320 360" height="360" width="320"><g><path xmlns="http://www.w3.org/2000/svg" d="M20.961 227.22l3.726 4.658-1.863-6.056c-0.466-2.795-3.726 0.466-1.863 1.398M25.153 224.425c1.397 2.329 2.795 4.658 2.795 6.987 0 3.261 2.795 4.658 5.123 5.589-3.261-3.726-5.124-13.974-7.918-12.576M204.017 26.929c7.918 0 15.371-0.932 23.756 0.931 20.495 5.124 37.729 15.371 49.374 29.811l32.606 52.169c1.397 13.042 4.192 27.482 3.726 43.319 3.261 0 2.795-4.658 6.521-5.59-3.726 9.316-5.59 20.961-6.521 34.469-2.329-7.453 0-18.632 0.466-24.687-3.261 5.124-5.124 1.397-5.124-0.932 0.466-3.726-1.397-3.261-2.795-4.658-5.124-4.658-8.384-9.782-12.11-17.7 2.329-6.055 2.795-14.905-4.658-19.563-2.329-1.397-5.124-3.726-6.521-7.453-1.863-5.124-5.124-11.179-4.193-19.097 0.466-2.329-6.987 5.124-11.179 1.863-18.166-12.576-36.332-27.016-58.224-39.127-11.645 0-20.029-4.192-24.221-9.316-3.726-4.658-0.932-10.713 4.658-11.179 3.261 0 6.987-0.932 9.782 0.932 0.466-1.863 2.329-4.192 4.657-4.192M157.904 16.215l0.932 0.466c4.658 0.932 6.987 7.453 12.11 5.124 0 3.261 0.466 6.521-0.466 8.85-1.397 3.726-5.59 3.726-8.85 3.726-31.208-1.863-49.374 11.179-68.471 22.358-5.124 3.261-10.713 5.59-14.906 9.782-20.029 18.632-41.921 35.866-47.045 70.335l-4.192 38.195c-0.466 4.192-5.124 8.384-4.192 13.508l3.26 22.824c-3.261-3.261-5.124 0.932-4.192 2.795 0.466 1.397 2.329 6.055 5.124 1.863 3.726 6.987 7.453 20.495 12.576 26.55 15.837 18.632 36.332 35.4 53.101 52.169 4.192-0.932 7.453-0.932 8.384-3.727 1.397 2.795-1.397 5.59-3.726 6.056 7.453 4.658 15.837 8.85 27.016 9.781 14.44 0.932 27.948 3.261 40.524 6.522 6.521-1.863 13.042-2.795 20.029-3.261 2.329 0 3.726-3.726 6.521-4.658l0.466-4.658c2.795 4.192 2.329-1.397 0.466-4.192 3.261 2.795 4.192 5.124 5.589 6.987 0-1.397 3.726-6.521 3.727-0.466l0.931-6.055c1.397-0.932 1.863 5.124 3.261 0.931 1.397-4.192 4.192-0.932 6.987-2.329-0.932 1.863-0.466 5.59 2.794 3.261l3.727-3.261c2.329 5.59 6.055 3.261 7.918 2.329 20.495-13.042 40.99-28.413 60.553-43.784l-0.466 6.055 2.329-7.453c2.329 2.329 4.192 0.466 5.124-0.931 2.795-4.658 6.521-9.316 12.577-13.508-7.453 20.029-16.303 35.866-27.482 48.908l-4.658 5.59c0 3.261-0.932 7.453-4.658 7.918-1.863 0.466-5.59-0.932-8.384 1.863-1.397 1.863 3.261 5.59-0.466 2.795-3.261-2.329-6.521 0-10.248 0.932-2.795 0.932 1.863 3.726 2.795 5.589 0.932 1.863 1.863 3.726 1.398 6.056l-5.124-5.59c-6.055 3.261-9.782 9.316-14.906 13.974-2.329 1.863-1.397 5.124-1.397 7.918-3.261 0-6.987-0.932-8.85 0.932-1.397 1.863-0.932 4.658-0.932 7.453-4.658-0.466-5.124-7.453-9.315-6.056-4.192 0.932-8.85 1.397-12.577 3.727 2.795 5.59-4.658 2.329-3.726 3.26-6.987-4.192-13.042-7.453-20.495-4.658-15.837-5.124-35.4-2.795-49.84-0.931 0-2.329 0.466-4.658-0.466-5.124-0.932 2.329-3.726 1.397-3.26 1.397-8.85-6.055-17.7-9.782-27.016-14.905-8.384 0.932-16.303-3.261-18.632-5.59-6.521-6.055-13.974-2.795-20.029-4.192-13.042-3.261-17.7-16.769-19.098-26.084-0.932-4.658-4.658-6.521-6.055-6.056-6.055-19.563-15.371-37.263-22.824-55.429-1.863-4.658-1.397-9.316-1.397-14.44 2.329 0.932 4.658 0.466 4.192-2.794-2.329-15.371-7.918-27.016-13.974-38.195 3.261-15.837 3.726-34.469 11.179-48.443 6.521-12.576 18.632-19.098 27.016-29.811 2.795-3.726 2.795-8.85 5.59-12.11 9.316-9.316 18.632-19.098 28.879-27.482 4.658-3.726 10.247 0 17.234-1.397 2.329-8.384 11.645-15.837 20.495-13.508 3.726 0.932 11.179-8.85 13.508-9.782 3.726-1.397 1.863 3.726 1.863 6.987 8.85-6.987 20.961-10.713 32.14-14.906" fill="#ffffff" fill-rule="nonzero" stroke="none" stroke-width="1" stroke-linecap="butt" stroke-linejoin="miter" stroke-miterlimit="10" stroke-dasharray="" stroke-dashoffset="0" font-family="none" font-weight="none" font-size="none" text-anchor="none" style="mix-blend-mode: normal" data-fill-palette-color="tertiary"></path></g><g transform="matrix(1,0,0,1,64,166.49643314432046)"><svg viewBox="0 0 192 27.00713371135906" height="27.00713371135906" width="192"><g><svg viewBox="0 0 192 27.00713371135906" height="27.00713371135906" width="192"><g><svg viewBox="0 0 192 27.00713371135906" height="27.00713371135906" width="192"><g><svg viewBox="0 0 192 27.00713371135906" height="27.00713371135906" width="192"><g id="textblocktransform"><svg viewBox="0 0 192 27.00713371135906" height="27.00713371135906" width="192" id="textblock"><g><svg viewBox="0 0 192 27.00713371135906" height="27.00713371135906" width="192"><g transform="matrix(1,0,0,1,0,0)"><svg width="192" viewBox="1.7000000476837158 -37.650001525878906 273.3299865722656 38.45000076293945" height="27.00713371135906" data-palette-color="#ffffff"><path d="M2.05 0L2.05-3.25Q3.45-3.25 4.05-3.8 4.65-4.35 4.83-5.38 5-6.4 5-7.7L5-7.7 5-16.1Q5-17 5.05-18.13 5.1-19.25 5.2-20.35L5.2-20.35Q4.4-20.3 3.33-20.28 2.25-20.25 1.7-20.2L1.7-20.2 1.7-24 3.7-24Q5.65-24 7.28-24.5 8.9-25 9.4-25.5L9.4-25.5 11.85-25.5Q11.95-25 12-23.63 12.05-22.25 12.05-21.2L12.05-21.2Q13.4-22.85 14.6-23.85 15.8-24.85 16.98-25.33 18.15-25.8 19.35-25.8L19.35-25.8Q21.1-25.8 22.4-24.83 23.7-23.85 23.7-21.65L23.7-21.65Q23.7-20.9 23.35-20.08 23-19.25 22.25-18.7 21.5-18.15 20.2-18.15L20.2-18.15Q19.2-18.15 18.15-18.75 17.1-19.35 16.95-21.05L16.95-21.05Q15.95-21.05 14.95-20.23 13.95-19.4 13.18-18.28 12.4-17.15 12.1-16.2L12.1-16.2 12.1-8.05Q12.1-7.35 12.05-6.08 12-4.8 11.9-3.65L11.9-3.65Q12.7-3.75 13.68-3.78 14.65-3.8 15.15-3.8L15.15-3.8 15.15 0 2.05 0ZM37.5 0.8L37.5 0.8Q33.85 0.8 31.05-0.83 28.25-2.45 26.7-5.43 25.15-8.4 25.15-12.45L25.15-12.45Q25.15-15.95 26.7-19 28.25-22.05 31.07-23.93 33.9-25.8 37.65-25.8L37.65-25.8Q39.75-25.8 41.75-25.23 43.75-24.65 45.37-23.25 47-21.85 47.97-19.45 48.95-17.05 48.9-13.45L48.9-13.45 32.5-13.15Q32.5-10.45 33.17-8.3 33.85-6.15 35.4-4.9 36.95-3.65 39.55-3.65L39.55-3.65Q40.55-3.65 41.82-4 43.1-4.35 44.42-5.18 45.75-6 46.9-7.4L46.9-7.4 49.15-5.3Q47.35-2.75 45.3-1.43 43.25-0.1 41.22 0.35 39.2 0.8 37.5 0.8ZM32.8-16.65L32.8-16.65 42-16.65Q41.95-18.75 41.42-19.98 40.9-21.2 40-21.75 39.1-22.3 37.9-22.3L37.9-22.3Q35.7-22.3 34.45-20.73 33.2-19.15 32.8-16.65ZM64.05 0.8L64.05 0.8Q61.9 0.8 59.85 0.25 57.8-0.3 56.65-1.15L56.65-1.15 56.75 0.35 52.95 0.35 52.75-8.25 56-8.25Q56.15-6.75 57.2-5.5 58.25-4.25 59.95-3.53 61.65-2.8 63.75-2.8L63.75-2.8Q64.59-2.8 65.37-3.05 66.15-3.3 66.67-3.88 67.2-4.45 67.2-5.3L67.2-5.3Q67.2-6.25 66.52-6.85 65.84-7.45 64.57-8 63.3-8.55 61.4-9.25L61.4-9.25Q59.85-9.85 58.27-10.5 56.7-11.15 55.37-12.08 54.05-13 53.25-14.38 52.45-15.75 52.45-17.75L52.45-17.75Q52.45-19.2 53-20.63 53.55-22.05 54.7-23.23 55.85-24.4 57.62-25.1 59.4-25.8 61.85-25.8L61.85-25.8Q63.2-25.8 64.92-25.38 66.65-24.95 67.84-24.1L67.84-24.1 67.84-25.55 71.65-25.55 71.65-16.7 68.4-16.7Q68.09-18.45 67.17-19.7 66.25-20.95 64.8-21.63 63.35-22.3 61.55-22.3L61.55-22.3Q60.3-22.3 59.27-21.7 58.25-21.1 58.25-19.65L58.25-19.65Q58.25-18.5 59.05-17.82 59.85-17.15 61.25-16.7 62.65-16.25 64.34-15.65L64.34-15.65Q66.9-14.8 68.87-13.65 70.84-12.5 72-10.88 73.15-9.25 73.15-6.9L73.15-6.9Q73.15-4.3 71.84-2.6 70.55-0.9 68.47-0.05 66.4 0.8 64.05 0.8ZM88.64 0.8L88.64 0.8Q84.99 0.8 82.19-0.83 79.39-2.45 77.84-5.43 76.29-8.4 76.29-12.45L76.29-12.45Q76.29-15.95 77.84-19 79.39-22.05 82.22-23.93 85.04-25.8 88.79-25.8L88.79-25.8Q90.89-25.8 92.89-25.23 94.89-24.65 96.52-23.25 98.14-21.85 99.12-19.45 100.09-17.05 100.04-13.45L100.04-13.45 83.64-13.15Q83.64-10.45 84.32-8.3 84.99-6.15 86.54-4.9 88.09-3.65 90.69-3.65L90.69-3.65Q91.69-3.65 92.97-4 94.24-4.35 95.57-5.18 96.89-6 98.04-7.4L98.04-7.4 100.29-5.3Q98.49-2.75 96.44-1.43 94.39-0.1 92.37 0.35 90.34 0.8 88.64 0.8ZM83.94-16.65L83.94-16.65 93.14-16.65Q93.09-18.75 92.57-19.98 92.04-21.2 91.14-21.75 90.24-22.3 89.04-22.3L89.04-22.3Q86.84-22.3 85.59-20.73 84.34-19.15 83.94-16.65ZM103.69 0L103.69-3.25Q105.09-3.25 105.69-3.8 106.29-4.35 106.47-5.38 106.64-6.4 106.64-7.7L106.64-7.7 106.64-16.1Q106.64-17 106.69-18.13 106.74-19.25 106.84-20.35L106.84-20.35Q106.04-20.3 104.97-20.28 103.89-20.25 103.34-20.2L103.34-20.2 103.34-24 105.34-24Q107.29-24 108.92-24.5 110.54-25 111.04-25.5L111.04-25.5 113.49-25.5Q113.59-25 113.64-23.63 113.69-22.25 113.69-21.2L113.69-21.2Q115.04-22.85 116.24-23.85 117.44-24.85 118.62-25.33 119.79-25.8 120.99-25.8L120.99-25.8Q122.74-25.8 124.04-24.83 125.34-23.85 125.34-21.65L125.34-21.65Q125.34-20.9 124.99-20.08 124.64-19.25 123.89-18.7 123.14-18.15 121.84-18.15L121.84-18.15Q120.84-18.15 119.79-18.75 118.74-19.35 118.59-21.05L118.59-21.05Q117.59-21.05 116.59-20.23 115.59-19.4 114.82-18.28 114.04-17.15 113.74-16.2L113.74-16.2 113.74-8.05Q113.74-7.35 113.69-6.08 113.64-4.8 113.54-3.65L113.54-3.65Q114.34-3.75 115.32-3.78 116.29-3.8 116.79-3.8L116.79-3.8 116.79 0 103.69 0ZM141.89 0.15L137.54 0.15 129.64-17.2Q129.09-18.45 128.86-19.1 128.64-19.75 128.56-20.23 128.49-20.7 128.34-21.3L128.34-21.3 126.49-21.2 126.49-25 138.19-25 138.19-21.8Q137.14-21.75 136.79-21.2 136.44-20.65 136.54-19.78 136.64-18.9 136.99-17.9L136.99-17.9 139.59-11.5Q139.99-10.55 140.39-9.55 140.79-8.55 141.19-7.55L141.19-7.55 141.24-7.55Q141.64-8.6 142.01-9.65 142.39-10.7 142.74-11.75L142.74-11.75 144.89-17.85Q145.34-19.1 145.71-19.85 146.09-20.6 146.54-21.4L146.54-21.4 143.44-21.2 143.44-25 152.94-25 152.94-21.8Q151.79-21.6 150.89-20.53 149.99-19.45 149.34-18.13 148.69-16.8 148.29-15.8L148.29-15.8 141.89 0.15ZM178.29 0L168.84 0Q168.74-0.7 168.71-1.18 168.69-1.65 168.64-2.3L168.64-2.3Q166.94-0.6 165.04 0.1 163.14 0.8 161.19 0.8L161.19 0.8Q157.99 0.8 156.19-1.1 154.39-3 154.39-5.85L154.39-5.85Q154.39-8.25 155.61-9.95 156.84-11.65 158.86-12.73 160.89-13.8 163.36-14.38 165.84-14.95 168.34-15.05L168.34-15.05 168.34-17.65Q168.34-18.95 168.01-20 167.69-21.05 166.91-21.65 166.14-22.25 164.74-22.2L164.74-22.2Q163.79-22.15 162.89-21.8 161.99-21.45 161.34-20.8L161.34-20.8Q161.74-20.35 161.84-19.83 161.94-19.3 161.94-18.9L161.94-18.9Q161.94-17.9 161.14-16.82 160.34-15.75 158.59-15.8L158.59-15.8Q157.09-15.85 156.29-16.85 155.49-17.85 155.49-19.2L155.49-19.2Q155.49-21.2 156.91-22.68 158.34-24.15 160.74-24.98 163.14-25.8 166.04-25.8L166.04-25.8Q170.44-25.8 172.86-23.53 175.29-21.25 175.29-16.25L175.29-16.25Q175.29-14.55 175.29-13.35 175.29-12.15 175.26-10.95 175.24-9.75 175.24-8.05L175.24-8.05Q175.24-7.35 175.19-6.08 175.14-4.8 175.04-3.65L175.04-3.65Q175.89-3.75 176.84-3.78 177.79-3.8 178.29-3.8L178.29-3.8 178.29 0ZM168.29-11.5L168.29-11.5Q166.89-11.35 165.64-11 164.39-10.65 163.46-10.05 162.54-9.45 162.01-8.6 161.49-7.75 161.49-6.7L161.49-6.7Q161.54-5.3 162.39-4.7 163.24-4.1 164.34-4.1L164.34-4.1Q165.49-4.1 166.49-4.6 167.49-5.1 168.29-5.9L168.29-5.9Q168.29-6.4 168.29-6.88 168.29-7.35 168.29-7.85L168.29-7.85Q168.29-8.75 168.29-9.68 168.29-10.6 168.29-11.5ZM190.83 0.8L190.83 0.8Q189.33 0.8 187.96 0.45 186.58 0.1 185.46-0.88 184.33-1.85 183.68-3.75 183.03-5.65 183.03-8.8L183.03-8.8 183.13-20.85 179.73-20.85 179.73-25Q181.28-25.05 182.73-26.05 184.18-27.05 185.21-28.65 186.23-30.25 186.58-32L186.58-32 190.28-32 190.23-25 196.58-25 196.58-21.15 190.23-21 190.18-8.7Q190.18-7.55 190.41-6.43 190.63-5.3 191.28-4.58 191.93-3.85 193.18-3.85L193.18-3.85Q193.88-3.85 195.11-4.35 196.33-4.85 197.73-6.85L197.73-6.85 200.13-4.6Q198.78-2.6 197.33-1.5 195.88-0.4 194.56 0.1 193.23 0.6 192.23 0.7 191.23 0.8 190.83 0.8ZM201.58 0L201.58-3.25Q202.98-3.25 203.58-3.8 204.18-4.35 204.36-5.38 204.53-6.4 204.53-7.7L204.53-7.7 204.53-16Q204.53-16.9 204.58-18.07 204.63-19.25 204.73-20.35L204.73-20.35Q203.93-20.3 202.86-20.28 201.78-20.25 201.23-20.2L201.23-20.2 201.23-24Q203.53-24 205.13-24.25 206.73-24.5 207.66-24.85 208.58-25.2 208.93-25.5L208.93-25.5 211.63-25.5 211.63-8.05Q211.63-7.35 211.58-6.08 211.53-4.8 211.43-3.65L211.43-3.65Q212.23-3.75 213.21-3.78 214.18-3.8 214.68-3.8L214.68-3.8 214.68 0 201.58 0ZM207.83-29.45L207.83-29.45Q206.13-29.45 205.03-30.65 203.93-31.85 203.93-33.55L203.93-33.55Q203.93-35.25 205.08-36.45 206.23-37.65 207.78-37.65L207.78-37.65Q209.38-37.65 210.46-36.45 211.53-35.25 211.53-33.55L211.53-33.55Q211.53-31.85 210.53-30.65 209.53-29.45 207.83-29.45ZM230.18 0.8L230.18 0.8Q226.58 0.8 223.68-0.75 220.78-2.3 219.1-5.18 217.43-8.05 217.43-11.95L217.43-11.95Q217.43-16.1 219.15-19.23 220.88-22.35 223.75-24.08 226.63-25.8 230.03-25.8L230.03-25.8Q233.63-25.8 236.48-24.25 239.33-22.7 240.98-19.83 242.63-16.95 242.63-12.95L242.63-12.95Q242.63-8.75 241.03-5.65 239.43-2.55 236.63-0.88 233.83 0.8 230.18 0.8ZM230.38-2.75L230.38-2.75Q232.38-2.8 233.4-4.15 234.43-5.5 234.83-7.55 235.23-9.6 235.23-11.7L235.23-11.7Q235.23-13.55 234.95-15.45 234.68-17.35 234.08-18.9 233.48-20.45 232.45-21.4 231.43-22.35 229.93-22.3L229.93-22.3Q227.98-22.25 226.85-20.9 225.73-19.55 225.25-17.53 224.78-15.5 224.78-13.3L224.78-13.3Q224.78-10.75 225.33-8.3 225.88-5.85 227.1-4.28 228.33-2.7 230.38-2.75ZM259.33 0L246.23 0 246.23-3.25Q247.63-3.25 248.23-3.8 248.83-4.35 249-5.38 249.18-6.4 249.18-7.7L249.18-7.7 249.18-16.1Q249.18-17 249.23-18.13 249.28-19.25 249.38-20.35L249.38-20.35Q248.58-20.3 247.5-20.28 246.43-20.25 245.88-20.2L245.88-20.2 245.88-24Q248.18-24 249.78-24.25 251.38-24.5 252.3-24.85 253.23-25.2 253.58-25.5L253.58-25.5 256.03-25.5Q256.13-24.85 256.13-24.55 256.13-24.25 256.15-23.98 256.18-23.7 256.33-23L256.33-23Q257.33-23.8 258.63-24.43 259.93-25.05 261.23-25.43 262.53-25.8 263.53-25.8L263.53-25.8Q268.13-25.8 270.05-23.18 271.98-20.55 271.98-14.75L271.98-14.75 271.98-8.05Q271.98-7.35 271.93-6.08 271.88-4.8 271.78-3.65L271.78-3.65Q272.63-3.75 273.58-3.78 274.53-3.8 275.03-3.8L275.03-3.8 275.03 0 261.93 0 261.93-3.25Q263.33-3.25 263.95-3.8 264.58-4.35 264.75-5.38 264.93-6.4 264.93-7.7L264.93-7.7 264.88-14.8Q264.88-18.05 263.95-19.63 263.03-21.2 260.83-21.2L260.83-21.2Q259.58-21.2 258.35-20.65 257.13-20.1 256.28-19.35L256.28-19.35Q256.28-18.65 256.28-17.93 256.28-17.2 256.28-16.5L256.28-16.5 256.28-8.05Q256.28-7.35 256.23-6.08 256.18-4.8 256.08-3.65L256.08-3.65Q256.88-3.75 257.85-3.78 258.83-3.8 259.33-3.8L259.33-3.8 259.33 0Z" opacity="1" transform="matrix(1,0,0,1,0,0)" fill="#ffffff" class="wordmark-text-0" data-fill-palette-color="primary" id="text-0"></path></svg></g></svg></g></svg></g></svg></g><g></g></svg></g></svg></g></svg></g></svg></g><defs></defs></svg><rect width="320" height="360" fill="none" stroke="none" visibility="hidden"></rect></g></svg></g></svg>